<svg xmlns="http://www.w3.org/2000/svg" width="512" height="512"><path d="M153.423 8.634L8.515 153.542v204.984l144.908 144.908h204.984l144.908-144.908V153.542L358.407 8.634H153.423z" fill="#2ad4ff"/><path d="M153.61 210.08L8.514 153.557v204.956l145.097-57.62 57.36 57.428-57.53 145.12H358.4l-63.6-145.08 63.453-63.58 145.062 63.74V153.56l-145.067 62.71-62.544-62.44 62.69-145.19H153.436l56.524 145.22z" fill="#80e5ff"/><path d="M209.895 153.556l-56.477 56.477v90.997l57.482 57.482h83.884l63.628-63.628V216.18l-62.623-62.624h-85.9z" fill="#0cf"/><path d="M45.942 168.02v173.76l78.82-31.274V198.712l-78.82-30.693zM153.162 8.036l56.4 144.96.04-.038h57.483L153.588 8.036h-.425zM376.907 301.97l-74.182 74.142 44.84 102.285 131.51-131.547-102.168-44.88z" fill="#aef"/></svg>